# xmcd
#
# Track frame offsets:
#	150
#	20601
#	37171
#	58095
#	82353
#	107945
#	125179
#	151501
#	170967
#	190146
#
# Disc length: 2902 seconds
#
# Revision: 1
# Processed by: cddbd v1.5.2PL0 Copyright (c) Steve Scherf et al.
# Submitted via: EZCDAudioConverter 8.0.2.1
#
DISCID=930b540a
DTITLE=Various Artist - Jingle Bell
DYEAR=2003
DGENRE=Easy Listening
TTITLE0=Lê Uyên - Lời con xin Chúa
TTITLE1=Thy Thy - Jingle Bel
TTITLE2=Hương Lan - Lời yêu cuối
TTITLE3=Vũ Khanh - Mùa hoa tuyết
TTITLE4=Huyền Châu - Mùa sao sáng
TTITLE5=Lệ Hằng - Mùa đông năm ấy
TTITLE6=Lệ Hằng - Bóng nhỏ giáo đường
TTITLE7=Tuấn Vũ - Dư âm mùa giáng sinh
TTITLE8=Elvis Phương - Đêm Thánh vô cùng
TTITLE9=Lệ Hằng - Nửa đêm khấn hứa
EXTD=
EXTT0=
EXTT1=
EXTT2=
EXTT3=
EXTT4=
EXTT5=
EXTT6=
EXTT7=
EXTT8=
EXTT9=
PLAYORDER=
